<svg id="Layer_1" enable-background="new 0 0 480 480" height="512" viewBox="0 0 480 480" width="512" xmlns="http://www.w3.org/2000/svg"><path d="m362.3 117.7c67.5 67.5 67.6 177 0 244.7-67.5 67.5-177 67.6-244.7 0-67.5-67.5-67.6-177 0-244.7 67.6-67.5 177.1-67.7 244.7 0z" fill="#fe4f60"/><path d="m305.7 143.8c15.2 0 27.8 12.5 27.8 27.8s-12.5 27.8-27.8 27.8c-15.2 0-27.8-12.5-27.8-27.8s12.6-27.8 27.8-27.8z" fill="#e84857"/><circle cx="180.8" cy="314" fill="#e84857" r="20.4"/><path d="m302 253.9c25.9 0 47.2 21.3 47.2 47.2s-21.3 47.2-47.2 47.2-47.2-21.3-47.2-47.2 21.3-47.2 47.2-47.2z" fill="#e84857"/><path d="m224.1 67.7c35.1-3.2 45.4 46.9 11.9 57.9-52.1 17.1-93.2 58.2-110.3 110.3-11 33.5-61.1 23.3-57.9-11.9 7.5-82.8 73.4-148.8 156.3-156.3z" fill="#ff6d7a"/><ellipse cx="171.7" cy="185.5" fill="#e84857" rx="47.2" ry="47.2" transform="matrix(.071 -.998 .998 .071 -25.504 343.599)"/><g fill="#cc3b4d"><path d="m195.7 144.9c6.3 3.7 3.6 13.4-3.7 13.3-24.9-.1-47.6 20.2-47.4 47.5 0 7.4-9.6 10.1-13.3 3.8-18.9-31.6 4.5-71.2 40.5-71.2 8.6 0 16.8 2.4 23.9 6.6z"/><path d="m308.3 157.4c-7.6 2.9-13.8 9-16.7 16.6-2.7 7.2-13.6 5.7-13.6-2.5 0-15.4 12.8-28 28.2-27.7 7.7.1 9.4 10.9 2.1 13.6z"/><path d="m326 260.5c6.3 3.7 3.6 13.4-3.7 13.3-24.9-.1-47.6 20.2-47.5 47.5 0 7.4-9.6 10.1-13.3 3.8-18.9-31.6 4.5-71.2 40.5-71.2 8.7 0 16.9 2.4 24 6.6z"/><path d="m182.2 305.6c-4.3 2.1-7.8 5.6-9.9 9.9-2.9 6.1-12.6 3.6-11.7-3.8 1.1-9.3 8.7-16.9 18.2-17.8 6.9-.8 9.6 8.7 3.4 11.7z"/></g><path d="m16 218v44c0 4.4-3.6 8-8 8s-8-3.6-8-8v-44c0-4.4 3.6-8 8-8s8 3.6 8 8zm456-8c-4.4 0-8 3.6-8 8v44c0 4.4 3.6 8 8 8s8-3.6 8-8v-44c0-4.4-3.6-8-8-8zm-210 254h-44c-4.4 0-8 3.6-8 8s3.6 8 8 8h44c4.4 0 8-3.6 8-8s-3.6-8-8-8zm-44-448h44c4.4 0 8-3.6 8-8s-3.6-8-8-8h-44c-4.4 0-8 3.6-8 8s3.6 8 8 8zm-46.3 130.3c4.4 0 8-3.6 8-8s-3.6-8-8-8c-30.4 0-55.2 24.8-55.2 55.2s24.8 55.2 55.2 55.2c47 0 72.2-55.2 42.2-90.8-2.9-3.4-7.9-3.8-11.3-.9s-3.8 7.9-.9 11.3c21.3 25.2 3.5 64.5-29.9 64.5-21.6 0-39.2-17.6-39.2-39.2s17.5-39.3 39.1-39.3zm134 5.5c10.9 0 19.8 8.9 19.8 19.8 0 4.4 3.6 8 8 8s8-3.6 8-8c0-19.7-16-35.8-35.8-35.8s-35.8 16-35.8 35.8 16 35.8 35.8 35.8c4.4 0 8-3.6 8-8s-3.6-8-8-8c-10.9 0-19.8-8.9-19.8-19.8s8.9-19.8 19.8-19.8zm-124.9 133.9c15.6 0 28.4 12.7 28.4 28.4s-12.7 28.4-28.4 28.4-28.4-12.7-28.4-28.4 12.8-28.4 28.4-28.4zm0 16c-6.8 0-12.4 5.5-12.4 12.4s5.5 12.4 12.4 12.4 12.4-5.5 12.4-12.4-5.6-12.4-12.4-12.4zm66-.6c0 30.4 24.8 55.2 55.2 55.2s55.2-24.8 55.2-55.2c0-4.4-3.6-8-8-8s-8 3.6-8 8c0 21.6-17.6 39.2-39.2 39.2s-39.2-17.6-39.2-39.2c0-33 38.4-51.1 63.8-30.5 3.4 2.8 8.5 2.3 11.3-1.2 2.8-3.4 2.3-8.5-1.2-11.3-35.8-29-89.9-3.5-89.9 43zm194.2-69.1h-20.2c-1.9-43.9-19.5-83.8-47.4-114.1l14.3-14.3c3.1-3.1 3.1-8.2 0-11.3s-8.2-3.1-11.3 0l-14.3 14.3c-30.3-27.9-70.2-45.5-114.1-47.4v-20.2c0-4.4-3.6-8-8-8s-8 3.6-8 8v20.2c-27.4 1.2-54.3 8.6-78.3 21.7-3.9 2.1-5.3 7-3.2 10.8 2.1 3.9 7 5.3 10.8 3.2 24-13 51.2-19.9 78.6-19.9 91 0 165 74 165 165 0 4.4 3.6 8 8 8h28c4.4 0 8-3.6 8-8s-3.5-8-7.9-8zm-374.9-134.8 31.1-31.1c3.1-3.1 3.1-8.2 0-11.3s-8.2-3.1-11.3 0l-31.2 31.1c-3.1 3.1-3.1 8.2 0 11.3s8.2 3.1 11.4 0zm347.8 285.6-31.1 31.1c-5.1 5.1-1.4 13.7 5.7 13.7 2 0 4.1-.8 5.7-2.3l31.1-31.1c3.1-3.1 3.1-8.2 0-11.3-3.2-3.2-8.2-3.2-11.4-.1zm-347.8 0c-3.1-3.1-8.2-3.1-11.3 0s-3.1 8.2 0 11.3l31.1 31.1c3.1 3.1 8.2 3.1 11.3 0s3.1-8.2 0-11.3zm347.8-285.6c1.6 1.6 3.6 2.3 5.7 2.3 7.1 0 10.7-8.6 5.7-13.7l-31.1-31.1c-3.1-3.1-8.2-3.1-11.3 0s-3.1 8.2 0 11.3zm-26.1 290.6c3.1-3.1 3.1-8.2 0-11.3l-14.2-14.2c17.4-18.9 30.5-41.3 38.6-66.1 1.4-4.2-.9-8.7-5.1-10.1s-8.7.9-10.1 5.1c-21.8 66.5-84 113.8-157 113.8-91 0-165-74-165-165 0-44.1 17.2-85.5 48.3-116.7 3.1-3.1 3.1-8.2 0-11.3 0 0-19.8-19.8-19.8-19.8-3.1-3.1-8.2-3.1-11.3 0s-3.1 8.2 0 11.3l14.3 14.3c-28.9 31.5-45.5 71.5-47.3 114.2h-20.2c-4.4 0-8 3.6-8 8s3.6 8 8 8h20.2c1.9 43.9 19.5 83.8 47.4 114.1l-14.3 14.3c-5.1 5.1-1.4 13.7 5.7 13.7 2 0 4.1-.8 5.7-2.3l14.3-14.3c30.4 27.8 70.3 45.4 114.1 47.4v20.1c0 4.4 3.6 8 8 8s8-3.6 8-8v-20.2c43.8-1.9 83.4-19.2 114.2-47.3l14.3 14.3c3 3.1 8.1 3.1 11.2 0z"/></svg>